<svg width="49" height="48" viewBox="0 0 49 48" fill="none" xmlns="http://www.w3.org/2000/svg">
<path fill-rule="evenodd" clip-rule="evenodd" d="M22.5667 0.0619851C14.6963 0.53621 7.58869 4.81752 3.48013 11.5589C-1.59146 19.8804 -1.08162 30.5705 4.75884 38.3716C10.6106 46.1877 20.5619 49.6824 30.0222 47.2436C32.9286 46.4943 35.9553 45.0527 38.2435 43.3279L38.9915 42.764L39.4796 43.1159C41.3757 44.4825 43.0414 45.2025 45.0198 45.5106C45.9927 45.6621 48.6264 45.6222 48.7952 45.4534C48.8106 45.438 48.8091 45.3695 48.7919 45.301L48.7606 45.1765H47.2265C45.5363 45.1765 45.1397 45.1307 44.2175 44.8293C43.3104 44.5329 42.2429 43.948 41.2726 43.2158C40.7408 42.8145 39.9177 42.081 39.9177 42.0083C39.9177 41.9857 40.1556 41.7513 40.4464 41.4877C42.2639 39.8396 44.3773 37.0021 45.4452 34.7763L45.8044 34.0276L46.2363 34.3088C46.4739 34.4635 46.8214 34.7115 47.0084 34.8598C47.2886 35.082 47.3626 35.1179 47.4286 35.063C47.4727 35.0265 47.5088 34.9784 47.5088 34.9561C47.5088 34.9201 46.792 34.2514 46.2437 33.7758L46.0399 33.5991L46.4987 32.3389C48.7424 26.1768 48.4275 19.4414 45.6239 13.6283C45.1693 12.6855 44.4339 11.3691 44.362 11.3691C44.3446 11.3691 44.2855 11.402 44.2306 11.4421C44.1364 11.5109 44.1515 11.5513 44.4942 12.1483C46.1761 15.0775 47.1935 18.2159 47.5724 21.6442C47.6686 22.514 47.6686 25.5458 47.5724 26.4157C47.4583 27.4475 47.199 28.9085 46.9687 29.8163C46.6633 31.0206 46.4301 31.7225 45.8238 33.2627C45.776 33.3842 45.7697 33.3819 45.4355 33.1199C44.4073 32.3137 42.6919 31.3886 41.511 31.0035C40.7538 30.7566 39.8707 30.5519 39.0363 30.4299C38.2513 30.3152 36.5251 30.2196 35.973 30.2602L35.5257 30.2932V25.4243C35.5257 20.1343 35.5187 20.2673 35.829 19.6551C36.0996 19.1212 36.7305 18.5653 37.3526 18.3128L37.6133 18.207L35.3088 18.2066L33.0044 18.2064L33.3447 18.3373C34.2763 18.6958 34.8922 19.392 35.0854 20.3048C35.1277 20.5048 35.1462 22.0666 35.1462 25.4423C35.1462 30.1152 35.1425 30.2926 35.0465 30.2926C34.869 30.2926 33.2843 30.4536 32.9872 30.5018C32.7249 30.5444 32.6926 30.5383 32.6303 30.4341C32.5926 30.3712 32.2908 29.8291 31.9598 29.2294C29.5912 24.9397 26.9463 21.3705 24.545 19.2235L23.9222 18.6668L23.9232 14.0555C23.9242 9.16248 23.9293 9.05252 24.1834 8.4782C24.3209 8.16729 24.6044 7.89011 24.9616 7.71736L25.2507 7.57752H22.7022H20.1538L20.4306 7.71151C20.997 7.98571 21.2894 8.41525 21.4514 9.2115C21.5237 9.56671 21.5365 10.1789 21.5365 13.2903V16.9511L21.2545 16.7849C21.0994 16.6935 20.703 16.4834 20.3734 16.318C18.0645 15.1594 15.938 14.7531 12.8881 14.888L12.4001 14.9096V12.2311C12.4001 9.42449 12.4155 9.20011 12.6513 8.56968C12.7837 8.21577 13.1119 7.87249 13.476 7.7069L13.7556 7.5798L11.2072 7.57807L8.65876 7.57633L8.92986 7.71454C9.44937 7.97936 9.73148 8.36114 9.91671 9.05008C9.99668 9.34771 10.0099 9.79162 10.0225 12.6162L10.037 15.8424L9.29364 16.2076C8.40982 16.6419 7.72283 17.1223 7.0732 17.7603C5.67747 19.1311 4.80108 20.7877 4.38959 22.833C4.2857 23.3495 4.269 23.6041 4.2702 24.6535C4.27166 25.9926 4.34258 26.4888 4.67469 27.4836C5.30481 29.3713 6.85745 31.2109 8.70913 32.2637C10.9609 33.544 13.4962 34.0661 16.7797 33.9256C18.4968 33.8521 19.5731 33.745 21.6991 33.436C22.1017 33.3775 22.4522 33.3294 22.4779 33.3293C22.5035 33.3291 22.5133 33.7621 22.4994 34.2914C22.4695 35.4403 22.3872 35.7612 21.9707 36.3543C21.6653 36.7891 21.299 37.0909 20.7774 37.3374L20.4249 37.504L22.6723 37.504L24.9196 37.5041L24.4887 37.2924C24.0425 37.0733 23.6788 36.7994 23.4008 36.4731C23.1759 36.2092 23.0904 36.0618 22.9451 35.6876C22.8325 35.3977 22.8163 35.2489 22.7954 34.3185C22.7826 33.7445 22.7851 33.2748 22.801 33.2748C22.8169 33.2748 23.9113 33.1026 25.2332 32.8921C29.0369 32.2866 30.5538 32.0788 30.6256 32.1537C30.6594 32.1887 31.0233 32.7664 31.4346 33.4374C33.1167 36.182 33.8839 37.3192 34.9574 38.6594C36.0763 40.0562 37.1233 41.1677 38.2023 42.1044L38.7372 42.5687L38.5819 42.6963C37.6442 43.4666 36.1204 44.4273 34.6853 45.1531C31.427 46.8008 28.2244 47.6015 24.5695 47.6822C22.5539 47.7266 20.8037 47.5699 19.0151 47.1846C13.3865 45.9723 8.36607 42.738 4.92417 38.1068C2.38208 34.6863 0.851992 30.7324 0.379014 26.3615C0.285861 25.5006 0.285861 22.5592 0.379014 21.6984C0.495646 20.6207 0.70478 19.4227 0.957454 18.3851C2.98709 10.05 9.5037 3.4026 17.8494 1.15412C20.6218 0.407162 23.7853 0.176338 26.7553 0.504272L27.0671 0.538704V0.374628V0.210607L26.6198 0.15297C26.3737 0.121304 25.8308 0.0817219 25.4133 0.0650216C24.9958 0.0483212 24.4468 0.0250061 24.1933 0.0131857C23.9398 0.00141958 23.2079 0.0233791 22.5667 0.0619851ZM29.4529 0.377936C29.4529 0.584196 29.5046 0.615156 29.8073 0.590052C30.1856 0.558711 30.3971 0.646605 30.5086 0.881549C30.5806 1.0331 30.5853 1.10663 30.5356 1.29678C30.4544 1.60742 29.8287 2.21996 29.3283 2.47876C29.0578 2.61866 28.9652 2.69511 28.9651 2.77888C28.9649 2.88228 29.0311 2.90126 29.7917 3.01572C30.2466 3.08415 30.643 3.14336 30.6729 3.14732C30.7027 3.15123 30.7346 3.08974 30.7437 3.01068C30.7623 2.84986 30.7249 2.83836 29.968 2.77227C29.3506 2.71832 29.3469 2.71192 29.7771 2.44661C30.8322 1.79617 31.1838 1.23594 30.8489 0.739C30.6536 0.449129 30.42 0.34497 29.9049 0.317967C29.5233 0.297905 29.4529 0.307285 29.4529 0.377936ZM31.7663 0.723546C31.7465 0.743391 31.7302 0.813771 31.7302 0.879868C31.7302 0.989613 31.7615 1.00208 32.0898 1.02296C32.4156 1.04373 32.4646 1.06287 32.611 1.22678C32.7491 1.38131 32.7684 1.43884 32.7439 1.62217C32.728 1.74015 32.66 1.89534 32.5926 1.96702C32.4513 2.11743 32.1457 2.21666 31.964 2.17111C31.8952 2.15381 31.7961 2.15614 31.7438 2.17631C31.6706 2.20456 31.7173 2.24631 31.9471 2.35839C32.3401 2.55007 32.5086 2.79428 32.4729 3.12043C32.4375 3.44359 32.2097 3.67165 31.8859 3.70808C31.6802 3.73129 31.6105 3.70901 31.3588 3.53951C31.1992 3.43215 31.0525 3.34425 31.0329 3.34425C31.0133 3.34425 30.967 3.39257 30.9301 3.45162C30.8502 3.57958 30.9365 3.64985 31.3933 3.82857C31.9733 4.05543 32.6043 3.91326 32.8225 3.50643C33.0179 3.14206 32.9259 2.78365 32.5594 2.48158C32.3768 2.33106 32.3686 2.31404 32.4791 2.31404C32.8192 2.31404 33.1942 1.94441 33.1942 1.60915C33.1942 1.21176 32.7725 0.846847 32.1976 0.746754C31.7957 0.676753 31.8122 0.67762 31.7663 0.723546ZM35.8972 2.33524C35.1496 2.60234 34.6307 3.78139 34.9756 4.42956C35.1858 4.82457 35.7804 4.9784 36.2582 4.76135C36.8208 4.50574 37.3045 3.52953 37.151 2.95939C37.073 2.66995 36.8073 2.39797 36.5263 2.31995C36.255 2.24463 36.1433 2.24734 35.8972 2.33524ZM36.0385 2.57772C35.5999 2.8452 35.2903 3.4463 35.2851 4.04025C35.2821 4.39502 35.2955 4.44924 35.4097 4.5418C35.4864 4.60394 35.6216 4.64558 35.7468 4.64558C36.0265 4.64558 36.2891 4.38244 36.5431 3.8476C36.8352 3.23261 36.8033 2.69055 36.4661 2.53689C36.2868 2.45523 36.2305 2.4606 36.0385 2.57772ZM33.5551 2.86743C33.5379 2.93325 33.5289 2.991 33.5352 2.99583C33.5415 3.00065 33.7784 3.09071 34.0617 3.19601C34.4276 3.332 34.5884 3.36941 34.6167 3.32517C34.7199 3.16391 34.6452 3.09576 34.1774 2.92404C33.9133 2.82709 33.6723 2.74781 33.6418 2.74781C33.6113 2.74781 33.5723 2.80166 33.5551 2.86743ZM38.0819 3.15627C37.8458 3.35494 37.7735 3.61477 37.8541 3.97496C37.8897 4.13416 37.9182 4.28305 37.9173 4.30588C37.9164 4.32871 37.8069 4.36336 37.6742 4.38288C37.1407 4.46133 36.8544 4.75836 36.8947 5.19149C36.9246 5.51357 37.103 5.74992 37.4446 5.92018C37.7839 6.08924 38.0558 6.09309 38.2966 5.93227C38.6443 5.69998 38.7545 5.27672 38.5893 4.80825C38.4974 4.54793 38.4845 4.40782 38.5566 4.45233C38.5833 4.46887 38.7236 4.46632 38.8683 4.44669C39.4084 4.37339 39.6515 3.88002 39.3603 3.44798C39.0771 3.02771 38.4144 2.87648 38.0819 3.15627ZM38.4137 3.31872C38.2573 3.4283 38.21 3.71118 38.2914 4.05066C38.3564 4.32177 38.3602 4.32562 38.5276 4.29026C38.8971 4.21218 39.1586 3.95225 39.1586 3.66286C39.1586 3.60235 39.0873 3.48149 39.0001 3.3943C38.8216 3.2158 38.6012 3.18739 38.4137 3.31872ZM37.6264 4.67426C37.0805 5.04525 37.1671 5.77741 37.7575 5.78251C37.9156 5.78392 37.9859 5.74873 38.1026 5.61008C38.23 5.45869 38.2453 5.40274 38.2192 5.18238C38.1767 4.82413 38.0467 4.53714 37.9268 4.53714C37.8726 4.53714 37.7374 4.59884 37.6264 4.67426ZM39.0754 5.67791C39.0221 5.73674 38.9885 5.79481 39.0007 5.80691C39.013 5.81905 39.2156 5.97765 39.4508 6.1594C39.7854 6.41782 39.8948 6.47644 39.9524 6.42862C40.0861 6.31768 40.0308 6.2352 39.5991 5.90125C39.1783 5.5757 39.1707 5.57245 39.0754 5.67791ZM41.4299 5.74124C41.3765 5.84101 41.3817 5.87029 41.4611 5.91746C41.9369 6.20012 42.0301 6.28617 42.0658 6.47639C42.111 6.71767 42.0188 6.89997 41.7652 7.07093C41.4734 7.26754 41.1846 7.32393 40.4476 7.32837C40.0497 7.33076 39.7337 7.3563 39.7013 7.38872C39.6626 7.42744 39.8178 7.60252 40.2017 7.95301C41.0946 8.76834 40.99 8.69471 41.0821 8.57293C41.1257 8.51535 41.1621 8.45473 41.1631 8.43824C41.164 8.42176 40.9454 8.23074 40.6773 8.01374C40.4092 7.79669 40.1767 7.5978 40.1606 7.57178C40.1442 7.54526 40.3291 7.53816 40.5803 7.55567C41.114 7.59287 41.7406 7.50552 42.0414 7.35207C42.3126 7.2137 42.4954 6.85203 42.441 6.56168C42.4022 6.35504 42.1208 6.01317 41.7938 5.77535C41.5393 5.59029 41.512 5.58774 41.4299 5.74124ZM42.7101 7.79756C42.4119 8.03781 42.1602 8.24196 42.1507 8.25112C42.1411 8.26029 42.2204 8.38185 42.3269 8.52131C42.5552 8.82034 42.5975 8.95937 42.5604 9.28817C42.4991 9.83202 41.9068 10.0542 41.5106 9.68204C41.442 9.61751 41.3316 9.43397 41.2653 9.27407C41.1341 8.95736 41.1236 8.94934 40.979 9.05502C40.8856 9.12339 40.8853 9.13527 40.9744 9.30758C41.2186 9.77964 41.7977 10.2265 42.1688 10.2292C42.4047 10.231 42.6864 10.0609 42.8008 9.84752C42.9821 9.50956 42.9065 9.11645 42.5615 8.60237L42.4695 8.46535L42.9055 8.12468C43.1453 7.93734 43.3623 7.79159 43.3876 7.80081C43.4129 7.81003 43.5794 8.00658 43.7575 8.23757L44.0813 8.65752L44.2048 8.55759L44.3282 8.45771L43.8453 7.90719C43.5798 7.60442 43.3377 7.3576 43.3074 7.35868C43.2771 7.35977 43.0083 7.55725 42.7101 7.79756ZM13.1321 15.5989C12.968 15.6254 12.7362 15.6676 12.617 15.6929L12.4001 15.7388V20.3995C12.4001 24.6489 12.4084 25.0924 12.4943 25.4266C12.6706 26.1125 12.9083 26.4551 13.4032 26.7365L13.6472 26.8753L11.2096 26.8759L8.77197 26.8766L9.06781 26.7C9.5558 26.4087 9.85874 25.8144 9.98643 24.8975C10.0573 24.3884 10.0596 16.5744 9.98887 16.5744C9.88395 16.5744 9.0087 17.1243 8.62167 17.4333C7.46083 18.3603 6.71376 19.4503 6.17138 21.0085C5.28805 23.5462 5.26999 26.4062 6.1248 28.3808C6.71842 29.7521 7.96721 31.1574 9.32401 31.9809C12.2308 33.7452 16.1108 34.101 21.2522 33.0747L22.5134 32.823L22.4993 29.8633L22.4853 26.9037L21.3752 26.8766L20.265 26.8495L20.4984 26.7444C20.8063 26.6058 21.1163 26.2454 21.2596 25.8597C21.5243 25.1467 21.5345 24.9919 21.5355 21.6635L21.5365 18.538L20.9908 18.0849C19.8675 17.1521 18.3749 16.2596 17.3878 15.9305C16.5727 15.6587 16.0543 15.5896 14.6774 15.5692C13.9915 15.5591 13.2961 15.5724 13.1321 15.5989ZM23.9222 23.151C23.9222 24.654 23.9383 25.072 24.0061 25.3323C24.1983 26.0703 24.4966 26.5089 24.9787 26.7628L25.1948 26.8766H23.9892H22.7836V29.8106V32.7446L22.9869 32.7084C23.0988 32.6885 24.3248 32.3939 25.7116 32.0538C27.0983 31.7137 28.5745 31.3611 28.992 31.2703C29.4095 31.1795 29.804 31.0932 29.8687 31.0785C29.9763 31.0541 29.8651 30.8434 28.574 28.6253C26.73 25.4572 25.8092 23.9255 25.2082 23.0268C24.6829 22.2414 23.994 21.2917 23.9494 21.2917C23.9345 21.2917 23.9222 22.1284 23.9222 23.151ZM33.673 31.8063L33.3655 31.8379L34.125 33.2748C34.5426 34.065 34.9421 34.8214 35.0128 34.9556L35.1411 35.1996L35.1436 33.4781L35.1462 31.7565L34.5633 31.7657C34.2427 31.7707 33.842 31.789 33.673 31.8063ZM35.5257 33.7795V35.8196L35.9256 36.5127C37.0275 38.4227 38.1766 40.0874 39.2065 41.2655L39.6611 41.7855L39.9114 41.5755C40.2811 41.2654 41.6194 39.8816 42.0923 39.3205C43.3167 37.8677 44.3185 36.3444 45.1786 34.6275L45.5505 33.8851L45.0306 33.6287C42.8314 32.5442 39.856 31.8959 36.5263 31.7756L35.5257 31.7395V33.7795Z" fill="#008080"/>
</svg>
